Coordinates
version=1
nRows=8
nColumns=63
inDegrees=yes

Units are S.I. units (second, meters, Newtons, ...)
If the header above contains a line with 'inDegrees', this indicates whether rotational values are in degrees (yes) or radians (no).

endheader
time	pelvis_tilt	pelvis_list	pelvis_rotation	pelvis_tx	pelvis_ty	pelvis_tz	hip_flexion_r	hip_adduction_r	hip_rotation_r	knee_angle_r	knee_angle_r_beta	ankle_angle_r	subtalar_angle_r	mtp_angle_r	hip_flexion_l	hip_adduction_l	hip_rotation_l	knee_angle_l	knee_angle_l_beta	ankle_angle_l	subtalar_angle_l	mtp_angle_l	L5_S1_Flex_Ext	L5_S1_Lat_Bending	L5_S1_axial_rotation	L4_L5_Flex_Ext	L4_L5_Lat_Bending	L4_L5_axial_rotation	L3_L4_Flex_Ext	L3_L4_Lat_Bending	L3_L4_axial_rotation	L2_L3_Flex_Ext	L2_L3_Lat_Bending	L2_L3_axial_rotation	L1_L2_Flex_Ext	L1_L2_Lat_Bending	L1_L2_axial_rotation	L1_T12_Flex_Ext	L1_T12_Lat_Bending	L1_T12_axial_rotation	Abs_r3	Abs_r2	Abs_r1	Abs_t1	Abs_t2	neck_flexion	neck_bending	neck_rotation	arm_flex_r	arm_add_r	arm_rot_r	elbow_flex_r	pro_sup_r	wrist_flex_r	wrist_dev_r	arm_flex_l	arm_add_l	arm_rot_l	elbow_flex_l	pro_sup_l	wrist_flex_l	wrist_dev_l
      2.91836735	     26.88241844	    -44.43460658	    114.89841298	      0.27336936	      0.62821003	      0.94762766	     82.98298835	      6.65600575	     -2.48768724	     36.28535782	      0.63329896	     34.22132765	    -11.30894539	      0.00000000	     82.36763057	    -10.35059568	     -5.66957350	     38.55858679	      0.67297429	     40.15795429	     19.28396649	      0.00000000	     -0.23897173	     -2.72978835	      4.67946309	     -0.44379440	     -3.63061850	      4.97192954	     -0.39260666	     -6.63720739	      4.97192954	     -0.27312079	     -6.63720739	      4.09453021	     -0.22190915	     -5.56658440	      3.80206376	     -0.13654845	     -4.22844215	      3.50959732	     -1.70695117	    -30.87991176	     26.02576988	      0.00000000	      0.00000000	     13.39627161	    -12.90544781	    -29.20621143	     50.51546260	     13.36455077	    188.88824413	      0.17385471	      0.45510134	     -8.76090325	    -23.13040886	     76.63268697	     12.46693898	    168.46327067	      0.06671111	     30.01637691	    -69.86145098	    -24.45997438
      2.93877551	     26.91033613	    -43.86878608	    114.41469801	      0.27240957	      0.62705601	      0.94969373	     82.72833779	      7.00383004	     -2.84644881	     36.63956453	      0.63948104	     34.14649317	    -12.00242831	      0.00000000	     82.22137966	    -10.76668842	     -5.47409498	     39.18050474	      0.68382881	     40.51728030	     19.25606264	      0.00000000	     -0.27373415	     -2.71791992	      5.02622169	     -0.50835170	     -3.61483349	      5.34036054	     -0.44971784	     -6.60835049	      5.34036054	     -0.31285076	     -6.60835049	      4.39794397	     -0.25418954	     -5.54238230	      4.08380512	     -0.15641170	     -4.21005795	      3.76966626	     -1.95525569	    -30.74565369	     27.95433715	      0.00000000	      0.00000000	     16.10956631	     -9.99906378	    -36.87848499	     50.39393145	     13.27981908	    183.15774733	      0.21413862	      0.49745068	    -10.85813427	    -20.07369750	     80.57134692	     18.10396772	    171.40238503	      0.05949494	     11.26851854	    -69.80549602	    -24.54008107
      2.95918367	     29.06742130	    -42.40224271	    115.51360321	      0.26863303	      0.62506477	      0.95349665	     82.26999689	      7.35890512	     -5.10652132	     36.74333162	      0.64129211	     34.15538304	    -11.81502737	      0.00000000	     82.73532587	    -11.26733691	     -3.47948992	     40.30093098	      0.70338394	     40.91512679	     19.18990345	      0.00000000	     -0.28809315	     -2.38523727	      5.68015573	     -0.53501780	     -3.17236556	      6.03516546	     -0.47330824	     -5.79946589	      6.03516546	     -0.32926167	     -5.79946589	      4.97013626	     -0.26752330	     -4.86397583	      4.61512653	     -0.16461643	     -3.69473253	      4.26011680	     -2.05782059	    -26.98228101	     31.59132213	      0.00000000	      0.00000000	     18.18956128	     -9.48151868	    -41.88486111	     50.99179554	     12.79746705	    177.88255030	      0.24957876	      0.56620285	    -14.75746193	    -16.23071273	     80.59882160	     23.53818549	    166.50010808	      0.05725256	      1.68443083	    -69.75297518	    -24.41009022
      2.97959184	     31.46306137	    -39.46591066	    116.96826794	      0.26132056	      0.62745815	      0.95497910	     79.99655489	      7.58854397	     -8.46333221	     36.02727942	      0.62879465	     34.15949782	    -10.67146034	      0.00000000	     81.88050734	    -11.56878209	     -0.63331236	     40.95038528	      0.71471905	     41.26077061	     19.09577685	      0.00000000	     -0.32413860	     -1.85586437	      6.29836577	     -0.60195779	     -2.46829961	      6.69201363	     -0.53252730	     -4.51234863	      6.69201363	     -0.37045800	     -4.51234863	      5.51107005	     -0.30099510	     -3.78447863	      5.11742219	     -0.18521279	     -2.87473391	      4.72377432	     -2.31528958	    -20.99390895	     35.02962088	      0.00000000	      0.00000000	     18.22144780	     -9.20197166	    -43.24625145	     52.55096533	     11.63499529	    173.98917068	      0.24251405	      0.63040795	    -16.34652386	    -16.30827883	     76.05539824	     26.25782734	    158.27203910	      0.05945247	      0.65691414	    -69.75735580	    -24.06221781
      3.00000000	     31.34285821	    -36.36592854	    117.19044887	      0.25230168	      0.63808693	      0.94986902	     75.57944135	      7.37317049	    -10.46865622	     34.16083439	      0.59621904	     34.15600240	     -8.69676681	      0.00000000	     78.13255349	    -11.28028474	      0.48405576	     39.57929464	      0.69078901	     41.12639508	     18.96748733	      0.00000000	     -0.41464138	     -1.48661135	      6.31013292	     -0.77003050	     -1.97719310	      6.70451623	     -0.68121432	     -3.61454685	      6.70451623	     -0.47389363	     -3.61454685	      5.52136631	     -0.38503598	     -3.03149787	      5.12698300	     -0.23692608	     -2.30276099	      4.73259969	     -2.96174190	    -16.81684496	     35.09506628	      0.00000000	      0.00000000	     15.67946430	     -7.60529212	    -41.74855958	     55.30932028	     11.63699999	    172.59462997	      0.19605086	      0.73119875	    -18.21376901	    -19.55821647	     68.14884138	     23.54868993	    154.07770542	      0.06505674	      0.46736316	    -69.76078232	    -23.93889278
      3.02040816	     29.11743458	    -33.63290464	    116.29797325	      0.24318391	      0.65391974	      0.94004608	     69.98650075	      6.80602430	    -10.97372498	     31.60779496	      0.55166009	     34.03624613	     -6.63441394	      0.00000000	     72.41958150	    -10.55731532	     -0.04834234	     36.73095666	      0.64107613	     40.66330873	     18.81513898	      0.00000000	     -0.51369262	     -1.27785361	      5.44487804	     -0.95397857	     -1.69954530	      5.78518292	     -0.84394561	     -3.10697326	      5.78518292	     -0.58709930	     -3.10697326	      4.76426829	     -0.47701497	     -2.60579908	      4.42396341	     -0.29352396	     -1.97939524	      4.08365853	     -3.66925504	    -14.45533559	     30.28277822	      0.00000000	      0.00000000	     12.52299702	     -5.08480736	    -33.16646488	     59.34250706	     14.35503245	    176.88545610	      0.14218527	      0.91437698	    -24.83455612	    -23.72450959	     58.68202887	     14.85085799	    151.70227290	      0.07435643	      0.43735887	    -69.73165789	    -24.10330355
      3.04081633	     26.58303715	    -31.26214727	    115.22046959	      0.23545598	      0.66828704	      0.93122959	     64.89550632	      6.17787501	    -10.77956072	     29.46794205	      0.51431261	     33.89022606	     -5.38437592	      0.00000000	     66.94298962	     -9.68863832	     -0.87900925	     33.91556876	      0.59193834	     40.04171249	     18.64660450	      0.00000000	     -0.60420764	     -1.14210293	      3.89761064	     -1.12207402	     -1.51899689	      4.14121130	     -0.99265274	     -2.77690905	      4.14121130	     -0.69054892	     -2.77690905	      3.41040931	     -0.56106722	     -2.32897629	      3.16680864	     -0.34524425	     -1.76911743	      2.92320798	     -4.31579478	    -12.91969672	     21.67734109	      0.00000000	      0.00000000	     11.27396692	     -2.98337665	    -20.30866296	     64.81308051	     18.88503255	    191.93642391	      0.10144153	      5.32200636	    -57.38377823	    -23.18711384	     48.77378000	      3.48448373	    149.60422260	      0.08931077	      0.51051030	    -69.61819508	    -24.10867255
      3.06122449	     23.17954854	    -29.25780336	    113.57073655	      0.23232964	      0.67985775	      0.92493891	     60.55649308	      5.39632148	     -9.22024510	     28.27356959	      0.49346688	     33.76901541	     -5.40839564	      0.00000000	     61.88163015	     -8.64774344	     -2.55895355	     31.69836715	      0.55324087	     39.43078779	     18.60606634	      0.00000000	     -0.71113309	     -1.14605047	      1.69029876	     -1.32064526	     -1.52424713	      1.79594243	     -1.16832055	     -2.78650711	      1.79594243	     -0.81275401	     -2.78650711	      1.47901141	     -0.66035819	     -2.33702612	      1.37336774	     -0.40634145	     -1.77523218	      1.26772407	     -5.07955254	    -12.96435214	      9.40093460	      0.00000000	      0.00000000	     11.72009030	     -1.00430707	     -3.34067012	     72.71695147	     26.58938225	    191.82846064	      0.07855667	      9.58098512	    -69.56886041	    -23.83402887	     38.49865181	     -8.55614540	    146.15908893	      0.11088945	      0.69801187	    -69.07484680	    -23.78253586
